<?xml version="1.0" encoding="UTF-8" standalone="no"?>
<!DOCTYPE svg PUBLIC "-//W3C//DTD SVG 1.1//EN"
 "http://www.w3.org/Graphics/SVG/1.1/DTD/svg11.dtd">
<!-- Generated by graphviz version 2.40.1 (20161225.0304)
 -->
<!-- Title: %3 Pages: 1 -->
<svg width="1062pt" height="332pt"
 viewBox="0.00 0.00 1062.00 332.00" xmlns="http://www.w3.org/2000/svg" xmlns:xlink="http://www.w3.org/1999/xlink">
<g id="graph0" class="graph" transform="scale(1 1) rotate(0) translate(4 328)">
<title>%3</title>
<polygon fill="#ffffff" stroke="transparent" points="-4,4 -4,-328 1058.004,-328 1058.004,4 -4,4"/>
<!-- [root] aws_instance.web (expand) -->
<g id="node1" class="node">
<title>[root] aws_instance.web (expand)</title>
<polygon fill="none" stroke="#000000" points="839.7739,-108 693.7739,-108 693.7739,-72 839.7739,-72 839.7739,-108"/>
<text text-anchor="middle" x="766.7739" y="-86.3" font-family="Times,serif" font-size="14.00" fill="#000000">aws_instance.web</text>
</g>
<!-- [root] provider[&quot;registry.terraform.io/hashicorp/aws&quot;] -->
<g id="node5" class="node">
<title>[root] provider[&quot;registry.terraform.io/hashicorp/aws&quot;]</title>
<polygon fill="none" stroke="#000000" points="399.7739,-36 72.3338,-18 399.7739,0 727.214,-18 399.7739,-36"/>
<text text-anchor="middle" x="399.7739" y="-14.3" font-family="Times,serif" font-size="14.00" fill="#000000">provider[&quot;registry.terraform.io/hashicorp/aws&quot;]</text>
</g>
<!-- [root] aws_instance.web (expand)&#45;&gt;[root] provider[&quot;registry.terraform.io/hashicorp/aws&quot;] -->
<g id="edge1" class="edge">
<title>[root] aws_instance.web (expand)&#45;&gt;[root] provider[&quot;registry.terraform.io/hashicorp/aws&quot;]</title>
<path fill="none" stroke="#000000" d="M693.3881,-75.6028C632.1332,-63.5855 544.9005,-46.4717 481.4432,-34.0223"/>
<polygon fill="#000000" stroke="#000000" points="481.9572,-30.5565 471.4704,-32.0658 480.6095,-37.4256 481.9572,-30.5565"/>
</g>
<!-- [root] var.environment -->
<g id="node6" class="node">
<title>[root] var.environment</title>
<polygon fill="none" stroke="#000000" points="998.7739,-36 870.7739,-36 870.7739,0 1004.7739,0 1004.7739,-30 998.7739,-36"/>
<polyline fill="none" stroke="#000000" points="998.7739,-36 998.7739,-30 "/>
<polyline fill="none" stroke="#000000" points="1004.7739,-30 998.7739,-30 "/>
<text text-anchor="middle" x="937.7739" y="-14.3" font-family="Times,serif" font-size="14.00" fill="#000000">var.environment</text>
</g>
<!-- [root] aws_instance.web (expand)&#45;&gt;[root] var.environment -->
<g id="edge2" class="edge">
<title>[root] aws_instance.web (expand)&#45;&gt;[root] var.environment</title>
<path fill="none" stroke="#000000" d="M809.9245,-71.8314C832.8963,-62.159 861.3249,-50.1891 885.5371,-39.9944"/>
<polygon fill="#000000" stroke="#000000" points="887.0756,-43.1443 894.9337,-36.038 884.3591,-36.6929 887.0756,-43.1443"/>
</g>
<!-- [root] var.image_id -->
<g id="node7" class="node">
<title>[root] var.image_id</title>
<polygon fill="none" stroke="#000000" points="846.2739,-36 745.2739,-36 745.2739,0 852.2739,0 852.2739,-30 846.2739,-36"/>
<polyline fill="none" stroke="#000000" points="846.2739,-36 846.2739,-30 "/>
<polyline fill="none" stroke="#000000" points="852.2739,-30 846.2739,-30 "/>
<text text-anchor="middle" x="798.7739" y="-14.3" font-family="Times,serif" font-size="14.00" fill="#000000">var.image_id</text>
</g>
<!-- [root] aws_instance.web (expand)&#45;&gt;[root] var.image_id -->
<g id="edge3" class="edge">
<title>[root] aws_instance.web (expand)&#45;&gt;[root] var.image_id</title>
<path fill="none" stroke="#000000" d="M774.8489,-71.8314C778.3841,-63.8771 782.6099,-54.369 786.5196,-45.5723"/>
<polygon fill="#000000" stroke="#000000" points="789.7272,-46.9729 790.5903,-36.4133 783.3305,-44.1299 789.7272,-46.9729"/>
</g>
<!-- [root] data.aws_ami.ubuntu (expand) -->
<g id="node2" class="node">
<title>[root] data.aws_ami.ubuntu (expand)</title>
<polygon fill="none" stroke="#000000" points="491.7739,-180 321.7739,-180 321.7739,-144 491.7739,-144 491.7739,-180"/>
<text text-anchor="middle" x="406.7739" y="-158.3" font-family="Times,serif" font-size="14.00" fill="#000000">data.aws_ami.ubuntu</text>
</g>
<!-- [root] data.aws_ami.ubuntu (expand)&#45;&gt;[root] provider[&quot;registry.terraform.io/hashicorp/aws&quot;] -->
<g id="edge4" class="edge">
<title>[root] data.aws_ami.ubuntu (expand)&#45;&gt;[root] provider[&quot;registry.terraform.io/hashicorp/aws&quot;]</title>
<path fill="none" stroke="#000000" d="M405.8874,-143.7623C404.6934,-119.201 402.5568,-75.2474 401.1523,-46.3541"/>
<polygon fill="#000000" stroke="#000000" points="404.6348,-45.9079 400.6533,-36.0896 397.643,-46.2478 404.6348,-45.9079"/>
</g>
<!-- [root] output.environment -->
<g id="node3" class="node">
<title>[root] output.environment</title>
<polygon fill="none" stroke="#000000" points="1011.2739,-108 858.2739,-108 858.2739,-72 1017.2739,-72 1017.2739,-102 1011.2739,-108"/>
<polyline fill="none" stroke="#000000" points="1011.2739,-108 1011.2739,-102 "/>
<polyline fill="none" stroke="#000000" points="1017.2739,-102 1011.2739,-102 "/>
<text text-anchor="middle" x="937.7739" y="-86.3" font-family="Times,serif" font-size="14.00" fill="#000000">output.environment</text>
</g>
<!-- [root] output.environment&#45;&gt;[root] var.environment -->
<g id="edge10" class="edge">
<title>[root] output.environment&#45;&gt;[root] var.environment</title>
<path fill="none" stroke="#000000" d="M937.7739,-71.8314C937.7739,-64.131 937.7739,-54.9743 937.7739,-46.4166"/>
<polygon fill="#000000" stroke="#000000" points="941.274,-46.4132 937.7739,-36.4133 934.274,-46.4133 941.274,-46.4132"/>
</g>
<!-- [root] output.public_ip -->
<g id="node4" class="node">
<title>[root] output.public_ip</title>
<polygon fill="none" stroke="#000000" points="892.7739,-180 764.7739,-180 764.7739,-144 898.7739,-144 898.7739,-174 892.7739,-180"/>
<polyline fill="none" stroke="#000000" points="892.7739,-180 892.7739,-174 "/>
<polyline fill="none" stroke="#000000" points="898.7739,-174 892.7739,-174 "/>
<text text-anchor="middle" x="831.7739" y="-158.3" font-family="Times,serif" font-size="14.00" fill="#000000">output.public_ip</text>
</g>
<!-- [root] output.public_ip&#45;&gt;[root] aws_instance.web (expand) -->
<g id="edge11" class="edge">
<title>[root] output.public_ip&#45;&gt;[root] aws_instance.web (expand)</title>
<path fill="none" stroke="#000000" d="M815.3717,-143.8314C807.7324,-135.3694 798.5056,-125.1489 790.1533,-115.8971"/>
<polygon fill="#000000" stroke="#000000" points="792.696,-113.4906 783.397,-108.4133 787.5001,-118.1813 792.696,-113.4906"/>
</g>
<!-- [root] var.message -->
<g id="node8" class="node">
<title>[root] var.message</title>
<polygon fill="none" stroke="#000000" points="626.2739,-180 527.2739,-180 527.2739,-144 632.2739,-144 632.2739,-174 626.2739,-180"/>
<polyline fill="none" stroke="#000000" points="626.2739,-180 626.2739,-174 "/>
<polyline fill="none" stroke="#000000" points="632.2739,-174 626.2739,-174 "/>
<text text-anchor="middle" x="579.7739" y="-158.3" font-family="Times,serif" font-size="14.00" fill="#000000">var.message</text>
</g>
<!-- [root] var.servers -->
<g id="node9" class="node">
<title>[root] var.servers</title>
<polygon fill="none" stroke="#000000" points="740.7739,-180 650.7739,-180 650.7739,-144 746.7739,-144 746.7739,-174 740.7739,-180"/>
<polyline fill="none" stroke="#000000" points="740.7739,-180 740.7739,-174 "/>
<polyline fill="none" stroke="#000000" points="746.7739,-174 740.7739,-174 "/>
<text text-anchor="middle" x="698.7739" y="-158.3" font-family="Times,serif" font-size="14.00" fill="#000000">var.servers</text>
</g>
<!-- [root] meta.count&#45;boundary (EachMode fixup) -->
<g id="node10" class="node">
<title>[root] meta.count&#45;boundary (EachMode fixup)</title>
<ellipse fill="none" stroke="#000000" cx="829.7739" cy="-234" rx="224.4604" ry="18"/>
<text text-anchor="middle" x="829.7739" y="-230.3" font-family="Times,serif" font-size="14.00" fill="#000000">[root] meta.count&#45;boundary (EachMode fixup)</text>
</g>
<!-- [root] meta.count&#45;boundary (EachMode fixup)&#45;&gt;[root] data.aws_ami.ubuntu (expand) -->
<g id="edge5" class="edge">
<title>[root] meta.count&#45;boundary (EachMode fixup)&#45;&gt;[root] data.aws_ami.ubuntu (expand)</title>
<path fill="none" stroke="#000000" d="M734.053,-217.7071C664.7146,-205.9048 571.379,-190.0179 502.1259,-178.2301"/>
<polygon fill="#000000" stroke="#000000" points="502.5342,-174.7494 492.0887,-176.5217 501.3596,-181.6501 502.5342,-174.7494"/>
</g>
<!-- [root] meta.count&#45;boundary (EachMode fixup)&#45;&gt;[root] output.environment -->
<g id="edge6" class="edge">
<title>[root] meta.count&#45;boundary (EachMode fixup)&#45;&gt;[root] output.environment</title>
<path fill="none" stroke="#000000" d="M865.145,-216.213C880.1011,-207.1552 896.6071,-194.8891 907.7739,-180 921.4483,-161.7675 929.105,-136.95 933.2543,-117.9933"/>
<polygon fill="#000000" stroke="#000000" points="936.6952,-118.6346 935.2145,-108.1438 929.8298,-117.2683 936.6952,-118.6346"/>
</g>
<!-- [root] meta.count&#45;boundary (EachMode fixup)&#45;&gt;[root] output.public_ip -->
<g id="edge7" class="edge">
<title>[root] meta.count&#45;boundary (EachMode fixup)&#45;&gt;[root] output.public_ip</title>
<path fill="none" stroke="#000000" d="M830.2786,-215.8314C830.4925,-208.131 830.7469,-198.9743 830.9846,-190.4166"/>
<polygon fill="#000000" stroke="#000000" points="834.4833,-190.5066 831.2625,-180.4133 827.486,-190.3122 834.4833,-190.5066"/>
</g>
<!-- [root] meta.count&#45;boundary (EachMode fixup)&#45;&gt;[root] var.message -->
<g id="edge8" class="edge">
<title>[root] meta.count&#45;boundary (EachMode fixup)&#45;&gt;[root] var.message</title>
<path fill="none" stroke="#000000" d="M769.2245,-216.6555C734.6758,-206.7479 690.3094,-194.0065 642.2051,-180.121"/>
<polygon fill="#000000" stroke="#000000" points="643.1146,-176.7407 632.5362,-177.3291 641.1727,-183.466 643.1146,-176.7407"/>
</g>
<!-- [root] meta.count&#45;boundary (EachMode fixup)&#45;&gt;[root] var.servers -->
<g id="edge9" class="edge">
<title>[root] meta.count&#45;boundary (EachMode fixup)&#45;&gt;[root] var.servers</title>
<path fill="none" stroke="#000000" d="M797.055,-216.0171C779.9397,-206.6102 758.801,-194.992 740.5185,-184.9436"/>
<polygon fill="#000000" stroke="#000000" points="741.9792,-181.7526 731.5298,-180.0032 738.6075,-187.8871 741.9792,-181.7526"/>
</g>
<!-- [root] provider[&quot;registry.terraform.io/hashicorp/aws&quot;] (close) -->
<g id="node11" class="node">
<title>[root] provider[&quot;registry.terraform.io/hashicorp/aws&quot;] (close)</title>
<ellipse fill="none" stroke="#000000" cx="293.7739" cy="-234" rx="293.548" ry="18"/>
<text text-anchor="middle" x="293.7739" y="-230.3" font-family="Times,serif" font-size="14.00" fill="#000000">[root] provider[&quot;registry.terraform.io/hashicorp/aws&quot;] (close)</text>
</g>
<!-- [root] provider[&quot;registry.terraform.io/hashicorp/aws&quot;] (close)&#45;&gt;[root] aws_instance.web (expand) -->
<g id="edge12" class="edge">
<title>[root] provider[&quot;registry.terraform.io/hashicorp/aws&quot;] (close)&#45;&gt;[root] aws_instance.web (expand)</title>
<path fill="none" stroke="#000000" d="M291.9462,-215.8239C290.9775,-195.2044 292.9721,-162.1013 312.7739,-144 339.5563,-119.5176 559.716,-102.4588 683.3315,-94.7096"/>
<polygon fill="#000000" stroke="#000000" points="683.7572,-98.1901 693.5216,-94.0782 683.3242,-91.2035 683.7572,-98.1901"/>
</g>
<!-- [root] provider[&quot;registry.terraform.io/hashicorp/aws&quot;] (close)&#45;&gt;[root] data.aws_ami.ubuntu (expand) -->
<g id="edge13" class="edge">
<title>[root] provider[&quot;registry.terraform.io/hashicorp/aws&quot;] (close)&#45;&gt;[root] data.aws_ami.ubuntu (expand)</title>
<path fill="none" stroke="#000000" d="M321.9971,-216.0171C336.4236,-206.825 354.164,-195.5213 369.6813,-185.6342"/>
<polygon fill="#000000" stroke="#000000" points="371.9661,-188.3286 378.5189,-180.0032 368.2046,-182.4251 371.9661,-188.3286"/>
</g>
<!-- [root] root -->
<g id="node12" class="node">
<title>[root] root</title>
<ellipse fill="none" stroke="#000000" cx="561.7739" cy="-306" rx="58.4896" ry="18"/>
<text text-anchor="middle" x="561.7739" y="-302.3" font-family="Times,serif" font-size="14.00" fill="#000000">[root] root</text>
</g>
<!-- [root] root&#45;&gt;[root] meta.count&#45;boundary (EachMode fixup) -->
<g id="edge14" class="edge">
<title>[root] root&#45;&gt;[root] meta.count&#45;boundary (EachMode fixup)</title>
<path fill="none" stroke="#000000" d="M606.0287,-294.1107C646.6426,-283.1995 707.6128,-266.8194 755.6551,-253.9125"/>
<polygon fill="#000000" stroke="#000000" points="756.6401,-257.2721 765.3895,-251.2973 754.8238,-250.5118 756.6401,-257.2721"/>
</g>
<!-- [root] root&#45;&gt;[root] provider[&quot;registry.terraform.io/hashicorp/aws&quot;] (close) -->
<g id="edge15" class="edge">
<title>[root] root&#45;&gt;[root] provider[&quot;registry.terraform.io/hashicorp/aws&quot;] (close)</title>
<path fill="none" stroke="#000000" d="M517.5192,-294.1107C477.1835,-283.2742 416.7693,-267.0435 368.8818,-254.1782"/>
<polygon fill="#000000" stroke="#000000" points="369.7391,-250.7845 359.1734,-251.57 367.9228,-257.5448 369.7391,-250.7845"/>
</g>
</g>
</svg>
