<?xml version="1.0" encoding="UTF-8" standalone="no"?>
<!DOCTYPE svg PUBLIC "-//W3C//DTD SVG 1.1//EN"
 "http://www.w3.org/Graphics/SVG/1.1/DTD/svg11.dtd">
<!-- Generated by graphviz version 2.40.1 (20161225.0304)
 -->
<!-- Title: %3 Pages: 1 -->
<svg width="2967pt" height="404pt"
 viewBox="0.00 0.00 2967.22 404.00" xmlns="http://www.w3.org/2000/svg" xmlns:xlink="http://www.w3.org/1999/xlink">
<g id="graph0" class="graph" transform="scale(1 1) rotate(0) translate(4 400)">
<title>%3</title>
<polygon fill="#ffffff" stroke="transparent" points="-4,4 -4,-400 2963.2239,-400 2963.2239,4 -4,4"/>
<!-- [root] aws_instance.cloud (expand) -->
<g id="node1" class="node">
<title>[root] aws_instance.cloud (expand)</title>
<polygon fill="none" stroke="#000000" points="460.22,-252 304.22,-252 304.22,-216 460.22,-216 460.22,-252"/>
<text text-anchor="middle" x="382.22" y="-230.3" font-family="Times,serif" font-size="14.00" fill="#000000">aws_instance.cloud</text>
</g>
<!-- [root] data.aws_ami.ubuntu (expand) -->
<g id="node3" class="node">
<title>[root] data.aws_ami.ubuntu (expand)</title>
<polygon fill="none" stroke="#000000" points="430.22,-180 260.22,-180 260.22,-144 430.22,-144 430.22,-180"/>
<text text-anchor="middle" x="345.22" y="-158.3" font-family="Times,serif" font-size="14.00" fill="#000000">data.aws_ami.ubuntu</text>
</g>
<!-- [root] aws_instance.cloud (expand)&#45;&gt;[root] data.aws_ami.ubuntu (expand) -->
<g id="edge1" class="edge">
<title>[root] aws_instance.cloud (expand)&#45;&gt;[root] data.aws_ami.ubuntu (expand)</title>
<path fill="none" stroke="#000000" d="M372.8833,-215.8314C368.7957,-207.8771 363.9096,-198.369 359.3891,-189.5723"/>
<polygon fill="#000000" stroke="#000000" points="362.3661,-187.7078 354.6824,-180.4133 356.1401,-190.9074 362.3661,-187.7078"/>
</g>
<!-- [root] aws_instance.web (expand) -->
<g id="node2" class="node">
<title>[root] aws_instance.web (expand)</title>
<polygon fill="none" stroke="#000000" points="624.22,-252 478.22,-252 478.22,-216 624.22,-216 624.22,-252"/>
<text text-anchor="middle" x="551.22" y="-230.3" font-family="Times,serif" font-size="14.00" fill="#000000">aws_instance.web</text>
</g>
<!-- [root] provider[&quot;registry.terraform.io/hashicorp/aws&quot;] -->
<g id="node6" class="node">
<title>[root] provider[&quot;registry.terraform.io/hashicorp/aws&quot;]</title>
<polygon fill="none" stroke="#000000" points="327.22,-108 -.2201,-90 327.22,-72 654.6601,-90 327.22,-108"/>
<text text-anchor="middle" x="327.22" y="-86.3" font-family="Times,serif" font-size="14.00" fill="#000000">provider[&quot;registry.terraform.io/hashicorp/aws&quot;]</text>
</g>
<!-- [root] aws_instance.web (expand)&#45;&gt;[root] provider[&quot;registry.terraform.io/hashicorp/aws&quot;] -->
<g id="edge2" class="edge">
<title>[root] aws_instance.web (expand)&#45;&gt;[root] provider[&quot;registry.terraform.io/hashicorp/aws&quot;]</title>
<path fill="none" stroke="#000000" d="M531.6252,-215.9447C510.0486,-196.6315 473.813,-165.8372 439.22,-144 419.0496,-131.2672 395.4247,-119.4655 375.0857,-110.1633"/>
<polygon fill="#000000" stroke="#000000" points="376.2519,-106.8501 365.6964,-105.938 373.3792,-113.2335 376.2519,-106.8501"/>
</g>
<!-- [root] data.aws_ami.ubuntu (expand)&#45;&gt;[root] provider[&quot;registry.terraform.io/hashicorp/aws&quot;] -->
<g id="edge3" class="edge">
<title>[root] data.aws_ami.ubuntu (expand)&#45;&gt;[root] provider[&quot;registry.terraform.io/hashicorp/aws&quot;]</title>
<path fill="none" stroke="#000000" d="M340.6778,-143.8314C338.7016,-135.9266 336.3418,-126.4872 334.1541,-117.7365"/>
<polygon fill="#000000" stroke="#000000" points="337.5193,-116.7659 331.6983,-107.9134 330.7283,-118.4637 337.5193,-116.7659"/>
</g>
<!-- [root] module.servers.data.aws_ami.ubuntu (expand) -->
<g id="node4" class="node">
<title>[root] module.servers.data.aws_ami.ubuntu (expand)</title>
<polygon fill="none" stroke="#000000" points="2160.22,-180 1876.22,-180 1876.22,-144 2160.22,-144 2160.22,-180"/>
<text text-anchor="middle" x="2018.22" y="-158.3" font-family="Times,serif" font-size="14.00" fill="#000000">module.servers.data.aws_ami.ubuntu</text>
</g>
<!-- [root] module.servers.provider[&quot;registry.terraform.io/hashicorp/aws&quot;] -->
<g id="node5" class="node">
<title>[root] module.servers.provider[&quot;registry.terraform.io/hashicorp/aws&quot;]</title>
<polygon fill="none" stroke="#000000" points="2527.22,-108 2095.2122,-90 2527.22,-72 2959.2278,-90 2527.22,-108"/>
<text text-anchor="middle" x="2527.22" y="-86.3" font-family="Times,serif" font-size="14.00" fill="#000000">module.servers.provider[&quot;registry.terraform.io/hashicorp/aws&quot;]</text>
</g>
<!-- [root] module.servers.data.aws_ami.ubuntu (expand)&#45;&gt;[root] module.servers.provider[&quot;registry.terraform.io/hashicorp/aws&quot;] -->
<g id="edge12" class="edge">
<title>[root] module.servers.data.aws_ami.ubuntu (expand)&#45;&gt;[root] module.servers.provider[&quot;registry.terraform.io/hashicorp/aws&quot;]</title>
<path fill="none" stroke="#000000" d="M2145.6771,-143.9707C2229.689,-132.0869 2338.5421,-116.6892 2418.4669,-105.3835"/>
<polygon fill="#000000" stroke="#000000" points="2419.1478,-108.8222 2428.559,-103.956 2418.1673,-101.8911 2419.1478,-108.8222"/>
</g>
<!-- [root] module.servers (expand) -->
<g id="node15" class="node">
<title>[root] module.servers (expand)</title>
<ellipse fill="none" stroke="#000000" cx="1824.22" cy="-18" rx="154.8728" ry="18"/>
<text text-anchor="middle" x="1824.22" y="-14.3" font-family="Times,serif" font-size="14.00" fill="#000000">[root] module.servers (expand)</text>
</g>
<!-- [root] module.servers.provider[&quot;registry.terraform.io/hashicorp/aws&quot;]&#45;&gt;[root] module.servers (expand) -->
<g id="edge15" class="edge">
<title>[root] module.servers.provider[&quot;registry.terraform.io/hashicorp/aws&quot;]&#45;&gt;[root] module.servers (expand)</title>
<path fill="none" stroke="#000000" d="M2401.9429,-77.1693C2274.6302,-64.1302 2078.4741,-44.0402 1950.7219,-30.9561"/>
<polygon fill="#000000" stroke="#000000" points="1950.8007,-27.4459 1940.4961,-29.9088 1950.0875,-34.4095 1950.8007,-27.4459"/>
</g>
<!-- [root] meta.count&#45;boundary (EachMode fixup) -->
<g id="node7" class="node">
<title>[root] meta.count&#45;boundary (EachMode fixup)</title>
<ellipse fill="none" stroke="#000000" cx="951.22" cy="-306" rx="224.4604" ry="18"/>
<text text-anchor="middle" x="951.22" y="-302.3" font-family="Times,serif" font-size="14.00" fill="#000000">[root] meta.count&#45;boundary (EachMode fixup)</text>
</g>
<!-- [root] meta.count&#45;boundary (EachMode fixup)&#45;&gt;[root] aws_instance.cloud (expand) -->
<g id="edge4" class="edge">
<title>[root] meta.count&#45;boundary (EachMode fixup)&#45;&gt;[root] aws_instance.cloud (expand)</title>
<path fill="none" stroke="#000000" d="M800.123,-292.6903C707.5856,-283.6706 586.5857,-270.3299 470.5447,-252.1364"/>
<polygon fill="#000000" stroke="#000000" points="470.836,-248.639 460.4119,-250.5332 469.7421,-255.553 470.836,-248.639"/>
</g>
<!-- [root] meta.count&#45;boundary (EachMode fixup)&#45;&gt;[root] aws_instance.web (expand) -->
<g id="edge5" class="edge">
<title>[root] meta.count&#45;boundary (EachMode fixup)&#45;&gt;[root] aws_instance.web (expand)</title>
<path fill="none" stroke="#000000" d="M859.7027,-289.5269C791.8124,-277.3066 700.0091,-260.782 634.236,-248.9429"/>
<polygon fill="#000000" stroke="#000000" points="634.7811,-245.4848 624.3192,-247.1579 633.5409,-252.3741 634.7811,-245.4848"/>
</g>
<!-- [root] module.servers (close) -->
<g id="node8" class="node">
<title>[root] module.servers (close)</title>
<ellipse fill="none" stroke="#000000" cx="1393.22" cy="-234" rx="144.8743" ry="18"/>
<text text-anchor="middle" x="1393.22" y="-230.3" font-family="Times,serif" font-size="14.00" fill="#000000">[root] module.servers (close)</text>
</g>
<!-- [root] meta.count&#45;boundary (EachMode fixup)&#45;&gt;[root] module.servers (close) -->
<g id="edge6" class="edge">
<title>[root] meta.count&#45;boundary (EachMode fixup)&#45;&gt;[root] module.servers (close)</title>
<path fill="none" stroke="#000000" d="M1050.4134,-289.8418C1123.4621,-277.9425 1222.331,-261.8371 1295.1202,-249.9801"/>
<polygon fill="#000000" stroke="#000000" points="1295.9054,-253.3984 1305.2126,-248.3361 1294.7799,-246.4894 1295.9054,-253.3984"/>
</g>
<!-- [root] module.servers (close)&#45;&gt;[root] module.servers.data.aws_ami.ubuntu (expand) -->
<g id="edge7" class="edge">
<title>[root] module.servers (close)&#45;&gt;[root] module.servers.data.aws_ami.ubuntu (expand)</title>
<path fill="none" stroke="#000000" d="M1501.0137,-221.8816C1594.659,-211.3162 1734.2526,-195.4766 1865.7023,-180.1741"/>
<polygon fill="#000000" stroke="#000000" points="1866.4306,-183.613 1875.9584,-178.9793 1865.6205,-176.66 1866.4306,-183.613"/>
</g>
<!-- [root] module.servers.output.environment (expand) -->
<g id="node9" class="node">
<title>[root] module.servers.output.environment (expand)</title>
<ellipse fill="none" stroke="#000000" cx="1001.22" cy="-162" rx="250.4558" ry="18"/>
<text text-anchor="middle" x="1001.22" y="-158.3" font-family="Times,serif" font-size="14.00" fill="#000000">[root] module.servers.output.environment (expand)</text>
</g>
<!-- [root] module.servers (close)&#45;&gt;[root] module.servers.output.environment (expand) -->
<g id="edge8" class="edge">
<title>[root] module.servers (close)&#45;&gt;[root] module.servers.output.environment (expand)</title>
<path fill="none" stroke="#000000" d="M1311.9973,-219.0816C1251.205,-207.9156 1167.6672,-192.5719 1102.5114,-180.6045"/>
<polygon fill="#000000" stroke="#000000" points="1103.0958,-177.1534 1092.628,-178.7892 1101.8311,-184.0382 1103.0958,-177.1534"/>
</g>
<!-- [root] module.servers.var.image_id (expand) -->
<g id="node10" class="node">
<title>[root] module.servers.var.image_id (expand)</title>
<ellipse fill="none" stroke="#000000" cx="1374.22" cy="-90" rx="216.3616" ry="18"/>
<text text-anchor="middle" x="1374.22" y="-86.3" font-family="Times,serif" font-size="14.00" fill="#000000">[root] module.servers.var.image_id (expand)</text>
</g>
<!-- [root] module.servers (close)&#45;&gt;[root] module.servers.var.image_id (expand) -->
<g id="edge9" class="edge">
<title>[root] module.servers (close)&#45;&gt;[root] module.servers.var.image_id (expand)</title>
<path fill="none" stroke="#000000" d="M1390.8136,-215.7623C1387.5729,-191.201 1381.7735,-147.2474 1377.9611,-118.3541"/>
<polygon fill="#000000" stroke="#000000" points="1381.3849,-117.5458 1376.6068,-108.0896 1374.4451,-118.4616 1381.3849,-117.5458"/>
</g>
<!-- [root] module.servers.var.message (expand) -->
<g id="node11" class="node">
<title>[root] module.servers.var.message (expand)</title>
<ellipse fill="none" stroke="#000000" cx="1824.22" cy="-90" rx="215.2619" ry="18"/>
<text text-anchor="middle" x="1824.22" y="-86.3" font-family="Times,serif" font-size="14.00" fill="#000000">[root] module.servers.var.message (expand)</text>
</g>
<!-- [root] module.servers (close)&#45;&gt;[root] module.servers.var.message (expand) -->
<g id="edge10" class="edge">
<title>[root] module.servers (close)&#45;&gt;[root] module.servers.var.message (expand)</title>
<path fill="none" stroke="#000000" d="M1395.5207,-215.9229C1399.1961,-195.0736 1408.4695,-161.436 1431.22,-144 1450.3471,-129.341 1566.0346,-114.5695 1666.9791,-104.1904"/>
<polygon fill="#000000" stroke="#000000" points="1667.4166,-107.6641 1677.0102,-103.1683 1666.7069,-100.7001 1667.4166,-107.6641"/>
</g>
<!-- [root] module.servers.var.servers (expand) -->
<g id="node12" class="node">
<title>[root] module.servers.var.servers (expand)</title>
<ellipse fill="none" stroke="#000000" cx="1649.22" cy="-162" rx="209.0631" ry="18"/>
<text text-anchor="middle" x="1649.22" y="-158.3" font-family="Times,serif" font-size="14.00" fill="#000000">[root] module.servers.var.servers (expand)</text>
</g>
<!-- [root] module.servers (close)&#45;&gt;[root] module.servers.var.servers (expand) -->
<g id="edge11" class="edge">
<title>[root] module.servers (close)&#45;&gt;[root] module.servers.var.servers (expand)</title>
<path fill="none" stroke="#000000" d="M1451.9516,-217.4817C1489.3748,-206.9565 1538.1025,-193.2518 1577.7648,-182.0968"/>
<polygon fill="#000000" stroke="#000000" points="1578.9619,-185.396 1587.6408,-179.3192 1577.0666,-178.6574 1578.9619,-185.396"/>
</g>
<!-- [root] module.servers.var.environment (expand) -->
<g id="node13" class="node">
<title>[root] module.servers.var.environment (expand)</title>
<ellipse fill="none" stroke="#000000" cx="906.22" cy="-90" rx="233.1587" ry="18"/>
<text text-anchor="middle" x="906.22" y="-86.3" font-family="Times,serif" font-size="14.00" fill="#000000">[root] module.servers.var.environment (expand)</text>
</g>
<!-- [root] module.servers.output.environment (expand)&#45;&gt;[root] module.servers.var.environment (expand) -->
<g id="edge13" class="edge">
<title>[root] module.servers.output.environment (expand)&#45;&gt;[root] module.servers.var.environment (expand)</title>
<path fill="none" stroke="#000000" d="M977.2475,-143.8314C965.3437,-134.8096 950.8026,-123.789 937.9849,-114.0745"/>
<polygon fill="#000000" stroke="#000000" points="939.9395,-111.1642 929.8557,-107.9134 935.7114,-116.743 939.9395,-111.1642"/>
</g>
<!-- [root] module.servers.var.image_id (expand)&#45;&gt;[root] module.servers (expand) -->
<g id="edge17" class="edge">
<title>[root] module.servers.var.image_id (expand)&#45;&gt;[root] module.servers (expand)</title>
<path fill="none" stroke="#000000" d="M1474.0896,-74.0209C1548.0326,-62.19 1648.4127,-46.1292 1722.7366,-34.2373"/>
<polygon fill="#000000" stroke="#000000" points="1723.7243,-37.6239 1733.0457,-32.5879 1722.6183,-30.7118 1723.7243,-37.6239"/>
</g>
<!-- [root] module.servers.var.message (expand)&#45;&gt;[root] module.servers (expand) -->
<g id="edge18" class="edge">
<title>[root] module.servers.var.message (expand)&#45;&gt;[root] module.servers (expand)</title>
<path fill="none" stroke="#000000" d="M1824.22,-71.8314C1824.22,-64.131 1824.22,-54.9743 1824.22,-46.4166"/>
<polygon fill="#000000" stroke="#000000" points="1827.7201,-46.4132 1824.22,-36.4133 1820.7201,-46.4133 1827.7201,-46.4132"/>
</g>
<!-- [root] module.servers.var.servers (expand)&#45;&gt;[root] module.servers (expand) -->
<g id="edge19" class="edge">
<title>[root] module.servers.var.servers (expand)&#45;&gt;[root] module.servers (expand)</title>
<path fill="none" stroke="#000000" d="M1782.9166,-148.119C1895.3833,-135.7865 2039.3229,-118.1823 2048.22,-108 2085.0829,-65.812 2022.3719,-43.1431 1954.0251,-31.1117"/>
<polygon fill="#000000" stroke="#000000" points="1954.3531,-27.6179 1943.9114,-29.4127 1953.1934,-34.5211 1954.3531,-27.6179"/>
</g>
<!-- [root] module.servers.var.environment (expand)&#45;&gt;[root] module.servers (expand) -->
<g id="edge16" class="edge">
<title>[root] module.servers.var.environment (expand)&#45;&gt;[root] module.servers (expand)</title>
<path fill="none" stroke="#000000" d="M1070.0753,-77.1486C1245.4452,-63.3941 1520.6275,-41.8112 1685.6158,-28.8709"/>
<polygon fill="#000000" stroke="#000000" points="1686.1364,-32.3409 1695.8321,-28.0696 1685.589,-25.3624 1686.1364,-32.3409"/>
</g>
<!-- [root] module.servers.provider[&quot;registry.terraform.io/hashicorp/aws&quot;] (close) -->
<g id="node14" class="node">
<title>[root] module.servers.provider[&quot;registry.terraform.io/hashicorp/aws&quot;] (close)</title>
<ellipse fill="none" stroke="#000000" cx="1608.22" cy="-306" rx="367.7348" ry="18"/>
<text text-anchor="middle" x="1608.22" y="-302.3" font-family="Times,serif" font-size="14.00" fill="#000000">[root] module.servers.provider[&quot;registry.terraform.io/hashicorp/aws&quot;] (close)</text>
</g>
<!-- [root] module.servers.provider[&quot;registry.terraform.io/hashicorp/aws&quot;] (close)&#45;&gt;[root] module.servers.data.aws_ami.ubuntu (expand) -->
<g id="edge14" class="edge">
<title>[root] module.servers.provider[&quot;registry.terraform.io/hashicorp/aws&quot;] (close)&#45;&gt;[root] module.servers.data.aws_ami.ubuntu (expand)</title>
<path fill="none" stroke="#000000" d="M1659.3178,-288.0535C1734.9187,-261.5009 1876.3285,-211.835 1957.2423,-183.4166"/>
<polygon fill="#000000" stroke="#000000" points="1958.5263,-186.6753 1966.8014,-180.0592 1956.2066,-180.0708 1958.5263,-186.6753"/>
</g>
<!-- [root] provider[&quot;registry.terraform.io/hashicorp/aws&quot;] (close) -->
<g id="node16" class="node">
<title>[root] provider[&quot;registry.terraform.io/hashicorp/aws&quot;] (close)</title>
<ellipse fill="none" stroke="#000000" cx="415.22" cy="-306" rx="293.548" ry="18"/>
<text text-anchor="middle" x="415.22" y="-302.3" font-family="Times,serif" font-size="14.00" fill="#000000">[root] provider[&quot;registry.terraform.io/hashicorp/aws&quot;] (close)</text>
</g>
<!-- [root] provider[&quot;registry.terraform.io/hashicorp/aws&quot;] (close)&#45;&gt;[root] aws_instance.cloud (expand) -->
<g id="edge20" class="edge">
<title>[root] provider[&quot;registry.terraform.io/hashicorp/aws&quot;] (close)&#45;&gt;[root] aws_instance.cloud (expand)</title>
<path fill="none" stroke="#000000" d="M406.8927,-287.8314C403.247,-279.8771 398.8891,-270.369 394.8573,-261.5723"/>
<polygon fill="#000000" stroke="#000000" points="398.0077,-260.0456 390.6594,-252.4133 391.6443,-262.9622 398.0077,-260.0456"/>
</g>
<!-- [root] provider[&quot;registry.terraform.io/hashicorp/aws&quot;] (close)&#45;&gt;[root] aws_instance.web (expand) -->
<g id="edge21" class="edge">
<title>[root] provider[&quot;registry.terraform.io/hashicorp/aws&quot;] (close)&#45;&gt;[root] aws_instance.web (expand)</title>
<path fill="none" stroke="#000000" d="M449.1877,-288.0171C467.0374,-278.5673 489.1023,-266.8858 508.1419,-256.806"/>
<polygon fill="#000000" stroke="#000000" points="510.0137,-259.7754 517.2139,-252.0032 506.7384,-253.5889 510.0137,-259.7754"/>
</g>
<!-- [root] root -->
<g id="node17" class="node">
<title>[root] root</title>
<ellipse fill="none" stroke="#000000" cx="951.22" cy="-378" rx="58.4896" ry="18"/>
<text text-anchor="middle" x="951.22" y="-374.3" font-family="Times,serif" font-size="14.00" fill="#000000">[root] root</text>
</g>
<!-- [root] root&#45;&gt;[root] meta.count&#45;boundary (EachMode fixup) -->
<g id="edge22" class="edge">
<title>[root] root&#45;&gt;[root] meta.count&#45;boundary (EachMode fixup)</title>
<path fill="none" stroke="#000000" d="M951.22,-359.8314C951.22,-352.131 951.22,-342.9743 951.22,-334.4166"/>
<polygon fill="#000000" stroke="#000000" points="954.7201,-334.4132 951.22,-324.4133 947.7201,-334.4133 954.7201,-334.4132"/>
</g>
<!-- [root] root&#45;&gt;[root] module.servers.provider[&quot;registry.terraform.io/hashicorp/aws&quot;] (close) -->
<g id="edge23" class="edge">
<title>[root] root&#45;&gt;[root] module.servers.provider[&quot;registry.terraform.io/hashicorp/aws&quot;] (close)</title>
<path fill="none" stroke="#000000" d="M1006.387,-371.9543C1102.6119,-361.4091 1304.543,-339.2797 1447.9248,-323.5666"/>
<polygon fill="#000000" stroke="#000000" points="1448.5857,-327.0152 1458.1449,-322.4466 1447.8231,-320.0569 1448.5857,-327.0152"/>
</g>
<!-- [root] root&#45;&gt;[root] provider[&quot;registry.terraform.io/hashicorp/aws&quot;] (close) -->
<g id="edge24" class="edge">
<title>[root] root&#45;&gt;[root] provider[&quot;registry.terraform.io/hashicorp/aws&quot;] (close)</title>
<path fill="none" stroke="#000000" d="M897.3721,-370.7667C816.198,-359.8627 660.0156,-338.883 547.3679,-323.7512"/>
<polygon fill="#000000" stroke="#000000" points="547.6676,-320.2601 537.2906,-322.3975 546.7356,-327.1978 547.6676,-320.2601"/>
</g>
</g>
</svg>
