<?xml version="1.0" encoding="UTF-8" standalone="no"?>
<!DOCTYPE svg PUBLIC "-//W3C//DTD SVG 1.1//EN"
 "http://www.w3.org/Graphics/SVG/1.1/DTD/svg11.dtd">
<!-- Generated by graphviz version 2.40.1 (20161225.0304)
 -->
<!-- Title: %3 Pages: 1 -->
<svg width="1062pt" height="332pt"
 viewBox="0.00 0.00 1062.00 332.00" xmlns="http://www.w3.org/2000/svg" xmlns:xlink="http://www.w3.org/1999/xlink">
<g id="graph0" class="graph" transform="scale(1 1) rotate(0) translate(4 328)">
<title>%3</title>
<polygon fill="#ffffff" stroke="transparent" points="-4,4 -4,-328 1058.004,-328 1058.004,4 -4,4"/>
<!-- [root] aws_instance.haproxy (expand) -->
<g id="node1" class="node">
<title>[root] aws_instance.haproxy (expand)</title>
<polygon fill="none" stroke="#000000" points="401.7301,-180 226.7301,-180 226.7301,-144 401.7301,-144 401.7301,-180"/>
<text text-anchor="middle" x="314.2301" y="-158.3" font-family="Times,serif" font-size="14.00" fill="#000000">aws_instance.haproxy</text>
</g>
<!-- [root] data.aws_ami.ubuntu (expand) -->
<g id="node4" class="node">
<title>[root] data.aws_ami.ubuntu (expand)</title>
<polygon fill="none" stroke="#000000" points="581.2301,-108 411.2301,-108 411.2301,-72 581.2301,-72 581.2301,-108"/>
<text text-anchor="middle" x="496.2301" y="-86.3" font-family="Times,serif" font-size="14.00" fill="#000000">data.aws_ami.ubuntu</text>
</g>
<!-- [root] aws_instance.haproxy (expand)&#45;&gt;[root] data.aws_ami.ubuntu (expand) -->
<g id="edge1" class="edge">
<title>[root] aws_instance.haproxy (expand)&#45;&gt;[root] data.aws_ami.ubuntu (expand)</title>
<path fill="none" stroke="#000000" d="M360.1564,-143.8314C384.8224,-134.0734 415.3992,-121.977 441.3161,-111.7242"/>
<polygon fill="#000000" stroke="#000000" points="442.6228,-114.9713 450.6341,-108.038 440.0477,-108.4621 442.6228,-114.9713"/>
</g>
<!-- [root] aws_instance.main (expand) -->
<g id="node2" class="node">
<title>[root] aws_instance.main (expand)</title>
<polygon fill="none" stroke="#000000" points="572.2301,-180 420.2301,-180 420.2301,-144 572.2301,-144 572.2301,-180"/>
<text text-anchor="middle" x="496.2301" y="-158.3" font-family="Times,serif" font-size="14.00" fill="#000000">aws_instance.main</text>
</g>
<!-- [root] aws_instance.main (expand)&#45;&gt;[root] data.aws_ami.ubuntu (expand) -->
<g id="edge2" class="edge">
<title>[root] aws_instance.main (expand)&#45;&gt;[root] data.aws_ami.ubuntu (expand)</title>
<path fill="none" stroke="#000000" d="M496.2301,-143.8314C496.2301,-136.131 496.2301,-126.9743 496.2301,-118.4166"/>
<polygon fill="#000000" stroke="#000000" points="499.7302,-118.4132 496.2301,-108.4133 492.7302,-118.4133 499.7302,-118.4132"/>
</g>
<!-- [root] aws_instance.nodes (expand) -->
<g id="node3" class="node">
<title>[root] aws_instance.nodes (expand)</title>
<polygon fill="none" stroke="#000000" points="749.7301,-180 590.7301,-180 590.7301,-144 749.7301,-144 749.7301,-180"/>
<text text-anchor="middle" x="670.2301" y="-158.3" font-family="Times,serif" font-size="14.00" fill="#000000">aws_instance.nodes</text>
</g>
<!-- [root] aws_instance.nodes (expand)&#45;&gt;[root] data.aws_ami.ubuntu (expand) -->
<g id="edge3" class="edge">
<title>[root] aws_instance.nodes (expand)&#45;&gt;[root] data.aws_ami.ubuntu (expand)</title>
<path fill="none" stroke="#000000" d="M626.3226,-143.8314C602.9477,-134.159 574.0204,-122.1891 549.3833,-111.9944"/>
<polygon fill="#000000" stroke="#000000" points="550.4003,-108.6275 539.8219,-108.038 547.7238,-115.0956 550.4003,-108.6275"/>
</g>
<!-- [root] provider[&quot;registry.terraform.io/hashicorp/aws&quot;] -->
<g id="node5" class="node">
<title>[root] provider[&quot;registry.terraform.io/hashicorp/aws&quot;]</title>
<polygon fill="none" stroke="#000000" points="496.2301,-36 168.79,-18 496.2301,0 823.6702,-18 496.2301,-36"/>
<text text-anchor="middle" x="496.2301" y="-14.3" font-family="Times,serif" font-size="14.00" fill="#000000">provider[&quot;registry.terraform.io/hashicorp/aws&quot;]</text>
</g>
<!-- [root] data.aws_ami.ubuntu (expand)&#45;&gt;[root] provider[&quot;registry.terraform.io/hashicorp/aws&quot;] -->
<g id="edge4" class="edge">
<title>[root] data.aws_ami.ubuntu (expand)&#45;&gt;[root] provider[&quot;registry.terraform.io/hashicorp/aws&quot;]</title>
<path fill="none" stroke="#000000" d="M496.2301,-71.8314C496.2301,-64.131 496.2301,-54.9743 496.2301,-46.4166"/>
<polygon fill="#000000" stroke="#000000" points="499.7302,-46.4132 496.2301,-36.4133 492.7302,-46.4133 499.7302,-46.4132"/>
</g>
<!-- [root] meta.count&#45;boundary (EachMode fixup) -->
<g id="node6" class="node">
<title>[root] meta.count&#45;boundary (EachMode fixup)</title>
<ellipse fill="none" stroke="#000000" cx="224.2301" cy="-234" rx="224.4604" ry="18"/>
<text text-anchor="middle" x="224.2301" y="-230.3" font-family="Times,serif" font-size="14.00" fill="#000000">[root] meta.count&#45;boundary (EachMode fixup)</text>
</g>
<!-- [root] meta.count&#45;boundary (EachMode fixup)&#45;&gt;[root] aws_instance.haproxy (expand) -->
<g id="edge5" class="edge">
<title>[root] meta.count&#45;boundary (EachMode fixup)&#45;&gt;[root] aws_instance.haproxy (expand)</title>
<path fill="none" stroke="#000000" d="M246.9409,-215.8314C258.0261,-206.9632 271.5255,-196.1637 283.5153,-186.5718"/>
<polygon fill="#000000" stroke="#000000" points="285.9043,-189.1429 291.5266,-180.1628 281.5314,-183.6768 285.9043,-189.1429"/>
</g>
<!-- [root] meta.count&#45;boundary (EachMode fixup)&#45;&gt;[root] aws_instance.main (expand) -->
<g id="edge6" class="edge">
<title>[root] meta.count&#45;boundary (EachMode fixup)&#45;&gt;[root] aws_instance.main (expand)</title>
<path fill="none" stroke="#000000" d="M289.3809,-216.7542C328.0025,-206.5308 377.2003,-193.5079 417.9251,-182.7278"/>
<polygon fill="#000000" stroke="#000000" points="419.0438,-186.0523 427.8153,-180.1098 417.2525,-179.2853 419.0438,-186.0523"/>
</g>
<!-- [root] meta.count&#45;boundary (EachMode fixup)&#45;&gt;[root] aws_instance.nodes (expand) -->
<g id="edge7" class="edge">
<title>[root] meta.count&#45;boundary (EachMode fixup)&#45;&gt;[root] aws_instance.nodes (expand)</title>
<path fill="none" stroke="#000000" d="M337.0142,-218.3959C404.837,-208.6651 493.1021,-195.3932 580.8282,-180.0263"/>
<polygon fill="#000000" stroke="#000000" points="581.4494,-183.4708 590.6907,-178.2893 580.2352,-176.5769 581.4494,-183.4708"/>
</g>
<!-- [root] provider[&quot;registry.terraform.io/hashicorp/aws&quot;] (close) -->
<g id="node7" class="node">
<title>[root] provider[&quot;registry.terraform.io/hashicorp/aws&quot;] (close)</title>
<ellipse fill="none" stroke="#000000" cx="760.2301" cy="-234" rx="293.548" ry="18"/>
<text text-anchor="middle" x="760.2301" y="-230.3" font-family="Times,serif" font-size="14.00" fill="#000000">[root] provider[&quot;registry.terraform.io/hashicorp/aws&quot;] (close)</text>
</g>
<!-- [root] provider[&quot;registry.terraform.io/hashicorp/aws&quot;] (close)&#45;&gt;[root] aws_instance.haproxy (expand) -->
<g id="edge8" class="edge">
<title>[root] provider[&quot;registry.terraform.io/hashicorp/aws&quot;] (close)&#45;&gt;[root] aws_instance.haproxy (expand)</title>
<path fill="none" stroke="#000000" d="M646.9243,-217.3467C581.1792,-207.4736 496.5382,-194.4062 412.016,-180.1089"/>
<polygon fill="#000000" stroke="#000000" points="412.4227,-176.6279 401.978,-178.4049 411.2512,-183.5292 412.4227,-176.6279"/>
</g>
<!-- [root] provider[&quot;registry.terraform.io/hashicorp/aws&quot;] (close)&#45;&gt;[root] aws_instance.main (expand) -->
<g id="edge9" class="edge">
<title>[root] provider[&quot;registry.terraform.io/hashicorp/aws&quot;] (close)&#45;&gt;[root] aws_instance.main (expand)</title>
<path fill="none" stroke="#000000" d="M695.6484,-216.3868C658.3565,-206.2163 611.2512,-193.3694 572.1872,-182.7156"/>
<polygon fill="#000000" stroke="#000000" points="573.0084,-179.3118 562.4399,-180.0572 571.1666,-186.0651 573.0084,-179.3118"/>
</g>
<!-- [root] provider[&quot;registry.terraform.io/hashicorp/aws&quot;] (close)&#45;&gt;[root] aws_instance.nodes (expand) -->
<g id="edge10" class="edge">
<title>[root] provider[&quot;registry.terraform.io/hashicorp/aws&quot;] (close)&#45;&gt;[root] aws_instance.nodes (expand)</title>
<path fill="none" stroke="#000000" d="M737.5193,-215.8314C726.4341,-206.9632 712.9347,-196.1637 700.9449,-186.5718"/>
<polygon fill="#000000" stroke="#000000" points="702.9288,-183.6768 692.9336,-180.1628 698.5559,-189.1429 702.9288,-183.6768"/>
</g>
<!-- [root] root -->
<g id="node8" class="node">
<title>[root] root</title>
<ellipse fill="none" stroke="#000000" cx="492.2301" cy="-306" rx="58.4896" ry="18"/>
<text text-anchor="middle" x="492.2301" y="-302.3" font-family="Times,serif" font-size="14.00" fill="#000000">[root] root</text>
</g>
<!-- [root] root&#45;&gt;[root] meta.count&#45;boundary (EachMode fixup) -->
<g id="edge11" class="edge">
<title>[root] root&#45;&gt;[root] meta.count&#45;boundary (EachMode fixup)</title>
<path fill="none" stroke="#000000" d="M447.9754,-294.1107C407.3615,-283.1995 346.3912,-266.8194 298.349,-253.9125"/>
<polygon fill="#000000" stroke="#000000" points="299.1802,-250.5118 288.6146,-251.2973 297.364,-257.2721 299.1802,-250.5118"/>
</g>
<!-- [root] root&#45;&gt;[root] provider[&quot;registry.terraform.io/hashicorp/aws&quot;] (close) -->
<g id="edge12" class="edge">
<title>[root] root&#45;&gt;[root] provider[&quot;registry.terraform.io/hashicorp/aws&quot;] (close)</title>
<path fill="none" stroke="#000000" d="M536.4849,-294.1107C576.8206,-283.2742 637.2347,-267.0435 685.1222,-254.1782"/>
<polygon fill="#000000" stroke="#000000" points="686.0812,-257.5448 694.8306,-251.57 684.265,-250.7845 686.0812,-257.5448"/>
</g>
</g>
</svg>
